<svg width="166" height="56" viewBox="0 0 166 56" fill="none" xmlns="http://www.w3.org/2000/svg">
<path d="M33.6299 3.016V3.976C32.9259 4.232 32.1739 4.792 31.3739 5.656C30.6059 6.52 29.8859 7.864 29.2139 9.688L19.0859 37.096C18.8299 37.064 18.5579 37.048 18.2699 37.048C17.9819 37.048 17.6939 37.048 17.4059 37.048C17.1499 37.048 16.8779 37.048 16.5899 37.048C16.3019 37.048 16.0299 37.064 15.7739 37.096L3.53394 7.048C3.08594 5.896 2.58994 5.112 2.04594 4.696C1.50194 4.248 0.989937 4.008 0.509937 3.976V3.016C1.46994 3.048 2.58994 3.08 3.86994 3.112C5.18194 3.144 6.49394 3.16 7.80594 3.16C9.27794 3.16 10.6539 3.144 11.9339 3.112C13.2459 3.08 14.3019 3.048 15.1019 3.016V3.976C14.0779 4.008 13.2779 4.136 12.7019 4.36C12.1259 4.552 11.8059 4.936 11.7419 5.512C11.6779 6.056 11.8699 6.888 12.3179 8.008L21.0539 30.232L20.0459 31.432L26.6699 13.576C27.5339 11.176 27.9819 9.288 28.0139 7.912C28.0459 6.536 27.7099 5.544 27.0059 4.936C26.3019 4.328 25.2939 4.008 23.9819 3.976V3.016C25.0699 3.048 26.0939 3.08 27.0539 3.112C28.0139 3.144 28.9899 3.16 29.9819 3.16C30.6859 3.16 31.3419 3.144 31.9499 3.112C32.5899 3.08 33.1499 3.048 33.6299 3.016ZM49.6124 3.016V3.976C48.5884 4.008 47.8044 4.136 47.2604 4.36C46.7484 4.552 46.4124 4.936 46.2524 5.512C46.0924 6.056 46.0124 6.92 46.0124 8.104V31.912C46.0124 33.064 46.0924 33.928 46.2524 34.504C46.4444 35.08 46.7964 35.464 47.3084 35.656C47.8204 35.848 48.5884 35.976 49.6124 36.04V37C48.7484 36.936 47.6604 36.904 46.3484 36.904C45.0364 36.872 43.7084 36.856 42.3644 36.856C40.7964 36.856 39.3404 36.872 37.9964 36.904C36.6844 36.904 35.6124 36.936 34.7804 37V36.04C35.8044 35.976 36.5724 35.848 37.0844 35.656C37.5964 35.464 37.9324 35.08 38.0924 34.504C38.2844 33.928 38.3804 33.064 38.3804 31.912V8.104C38.3804 6.92 38.2844 6.056 38.0924 5.512C37.9324 4.936 37.5804 4.552 37.0364 4.36C36.5244 4.136 35.7724 4.008 34.7804 3.976V3.016C35.6124 3.048 36.6844 3.08 37.9964 3.112C39.3404 3.144 40.7964 3.16 42.3644 3.16C43.7084 3.16 45.0364 3.144 46.3484 3.112C47.6604 3.08 48.7484 3.048 49.6124 3.016ZM78.5073 3.016C78.3793 4.424 78.2833 5.784 78.2193 7.096C78.1873 8.408 78.1713 9.416 78.1713 10.12C78.1713 10.76 78.1873 11.368 78.2193 11.944C78.2513 12.52 78.2833 13 78.3153 13.384H77.2113C76.8913 11.048 76.3953 9.208 75.7233 7.864C75.0513 6.488 74.1713 5.528 73.0833 4.984C72.0273 4.408 70.7793 4.12 69.3393 4.12H67.3713C66.4433 4.12 65.7393 4.2 65.2593 4.36C64.7793 4.52 64.4593 4.84 64.2993 5.32C64.1393 5.8 64.0593 6.536 64.0593 7.528V32.488C64.0593 33.48 64.1393 34.216 64.2993 34.696C64.4593 35.176 64.7793 35.496 65.2593 35.656C65.7393 35.816 66.4433 35.896 67.3713 35.896H69.7233C71.1633 35.896 72.4273 35.592 73.5153 34.984C74.6353 34.344 75.5793 33.272 76.3473 31.768C77.1473 30.264 77.7553 28.232 78.1713 25.672H79.2753C79.1793 26.696 79.1313 28.04 79.1313 29.704C79.1313 30.44 79.1473 31.48 79.1793 32.824C79.2113 34.168 79.3073 35.56 79.4673 37C77.8353 36.936 75.9953 36.904 73.9473 36.904C71.8993 36.872 70.0753 36.856 68.4753 36.856C67.6753 36.856 66.6513 36.856 65.4033 36.856C64.1553 36.856 62.8113 36.872 61.3713 36.904C59.9313 36.904 58.4753 36.92 57.0033 36.952C55.5313 36.952 54.1393 36.968 52.8273 37V36.04C53.8513 35.976 54.6193 35.848 55.1313 35.656C55.6433 35.464 55.9793 35.08 56.1393 34.504C56.3313 33.928 56.4273 33.064 56.4273 31.912V8.104C56.4273 6.92 56.3313 6.056 56.1393 5.512C55.9793 4.936 55.6273 4.552 55.0833 4.36C54.5713 4.136 53.8193 4.008 52.8273 3.976V3.016C54.1393 3.048 55.5313 3.08 57.0033 3.112C58.4753 3.112 59.9313 3.128 61.3713 3.16C62.8113 3.16 64.1553 3.16 65.4033 3.16C66.6513 3.16 67.6753 3.16 68.4753 3.16C69.9473 3.16 71.6113 3.16 73.4673 3.16C75.3553 3.128 77.0353 3.08 78.5073 3.016ZM71.0193 19.432C71.0193 19.432 71.0193 19.592 71.0193 19.912C71.0193 20.232 71.0193 20.392 71.0193 20.392H62.6193C62.6193 20.392 62.6193 20.232 62.6193 19.912C62.6193 19.592 62.6193 19.432 62.6193 19.432H71.0193ZM72.4113 13.096C72.2833 14.92 72.2193 16.312 72.2193 17.272C72.2513 18.232 72.2673 19.112 72.2673 19.912C72.2673 20.712 72.2833 21.592 72.3153 22.552C72.3473 23.512 72.4273 24.904 72.5553 26.728H71.4513C71.2913 25.608 70.9873 24.568 70.5393 23.608C70.1233 22.648 69.5153 21.88 68.7153 21.304C67.9153 20.696 66.8753 20.392 65.5953 20.392V19.432C66.5553 19.432 67.3713 19.24 68.0433 18.856C68.7153 18.44 69.2593 17.912 69.6753 17.272C70.1233 16.6 70.4753 15.896 70.7313 15.16C70.9873 14.424 71.1793 13.736 71.3073 13.096H72.4113ZM98.0812 3.016V3.976C97.0572 4.008 96.2732 4.136 95.7292 4.36C95.2172 4.552 94.8812 4.936 94.7212 5.512C94.5612 6.056 94.4812 6.92 94.4812 8.104V31.912C94.4812 33.064 94.5612 33.928 94.7212 34.504C94.9132 35.08 95.2652 35.464 95.7772 35.656C96.2892 35.848 97.0572 35.976 98.0812 36.04V37C97.2172 36.936 96.1292 36.904 94.8172 36.904C93.5052 36.872 92.1772 36.856 90.8332 36.856C89.2652 36.856 87.8092 36.872 86.4652 36.904C85.1532 36.904 84.0812 36.936 83.2492 37V36.04C84.2732 35.976 85.0412 35.848 85.5532 35.656C86.0652 35.464 86.4012 35.08 86.5612 34.504C86.7532 33.928 86.8492 33.064 86.8492 31.912V8.104C86.8492 6.92 86.7532 6.056 86.5612 5.512C86.4012 4.936 86.0492 4.552 85.5052 4.36C84.9932 4.136 84.2412 4.008 83.2492 3.976V3.016C84.0812 3.048 85.1532 3.08 86.4652 3.112C87.8092 3.144 89.2652 3.16 90.8332 3.16C92.1772 3.16 93.5052 3.144 94.8172 3.112C96.1292 3.08 97.2172 3.048 98.0812 3.016ZM101.296 3.016C102.096 3.048 103.168 3.08 104.512 3.112C105.888 3.144 107.248 3.16 108.592 3.16C110.128 3.16 111.616 3.144 113.056 3.112C114.496 3.08 115.52 3.064 116.128 3.064C119.104 3.064 121.568 3.4 123.52 4.072C125.504 4.712 126.976 5.656 127.936 6.904C128.928 8.152 129.424 9.656 129.424 11.416C129.424 12.504 129.2 13.608 128.752 14.728C128.304 15.816 127.536 16.84 126.448 17.8C125.392 18.728 123.936 19.48 122.08 20.056C120.224 20.6 117.888 20.872 115.072 20.872H110.464V19.912H114.592C116.48 19.912 117.904 19.56 118.864 18.856C119.856 18.12 120.528 17.16 120.88 15.976C121.264 14.76 121.456 13.416 121.456 11.944C121.456 9.416 121.008 7.464 120.112 6.088C119.216 4.68 117.68 3.976 115.504 3.976C114.256 3.976 113.44 4.248 113.056 4.792C112.704 5.336 112.528 6.44 112.528 8.104V31.912C112.528 33.064 112.608 33.928 112.768 34.504C112.96 35.08 113.312 35.464 113.824 35.656C114.336 35.848 115.104 35.976 116.128 36.04V37C115.264 36.936 114.176 36.904 112.864 36.904C111.552 36.872 110.224 36.856 108.88 36.856C107.344 36.856 105.888 36.872 104.512 36.904C103.168 36.904 102.096 36.936 101.296 37V36.04C102.32 35.976 103.088 35.848 103.6 35.656C104.112 35.464 104.448 35.08 104.608 34.504C104.8 33.928 104.896 33.064 104.896 31.912V8.104C104.896 6.92 104.8 6.056 104.608 5.512C104.448 4.936 104.096 4.552 103.552 4.36C103.04 4.136 102.288 4.008 101.296 3.976V3.016ZM110.368 20.056C111.744 20.088 112.928 20.152 113.92 20.248C114.944 20.344 115.84 20.44 116.608 20.536C117.376 20.6 118.064 20.648 118.672 20.68C121.584 20.936 123.728 21.56 125.104 22.552C126.512 23.544 127.424 25.032 127.84 27.016L128.944 31.96C129.232 33.24 129.536 34.136 129.856 34.648C130.176 35.16 130.64 35.416 131.248 35.416C131.664 35.384 132 35.288 132.256 35.128C132.544 34.936 132.848 34.664 133.168 34.312L133.84 34.888C132.976 35.88 132.048 36.584 131.056 37C130.064 37.448 128.864 37.672 127.456 37.672C125.728 37.672 124.304 37.304 123.184 36.568C122.064 35.832 121.328 34.472 120.976 32.488L120.112 27.688C119.888 26.344 119.616 25.176 119.296 24.184C118.976 23.16 118.528 22.36 117.952 21.784C117.408 21.176 116.64 20.872 115.648 20.872H110.464L110.368 20.056ZM150.562 2.92L162.226 32.968C162.674 34.12 163.17 34.92 163.714 35.368C164.29 35.784 164.802 36.008 165.25 36.04V37C164.29 36.936 163.154 36.904 161.842 36.904C160.562 36.872 159.266 36.856 157.954 36.856C156.482 36.856 155.09 36.872 153.778 36.904C152.466 36.904 151.426 36.936 150.658 37V36.04C152.29 35.976 153.314 35.704 153.73 35.224C154.178 34.712 154.082 33.64 153.442 32.008L145.282 9.688L146.146 8.44L138.85 27.448C138.146 29.208 137.714 30.648 137.554 31.768C137.426 32.888 137.506 33.752 137.794 34.36C138.114 34.968 138.61 35.4 139.282 35.656C139.986 35.88 140.818 36.008 141.778 36.04V37C140.722 36.936 139.714 36.904 138.754 36.904C137.794 36.872 136.818 36.856 135.826 36.856C135.122 36.856 134.45 36.872 133.81 36.904C133.202 36.904 132.658 36.936 132.178 37V36.04C132.85 35.912 133.538 35.48 134.242 34.744C134.946 34.008 135.634 32.76 136.306 31L147.25 2.92C147.762 2.952 148.306 2.968 148.882 2.968C149.49 2.968 150.05 2.952 150.562 2.92ZM153.922 23.176V24.136H139.618L140.098 23.176H153.922Z" fill="#F9F8F7"/>
<path d="M35.0044 55.14C34.2391 55.14 33.5064 55.0327 32.8064 54.818C32.1064 54.594 31.5511 54.3093 31.1404 53.964L31.7704 52.55C32.1624 52.858 32.6477 53.1147 33.2264 53.32C33.8051 53.5253 34.3977 53.628 35.0044 53.628C35.5177 53.628 35.9331 53.572 36.2504 53.46C36.5677 53.348 36.8011 53.1987 36.9504 53.012C37.0997 52.816 37.1744 52.5967 37.1744 52.354C37.1744 52.0553 37.0671 51.8173 36.8524 51.64C36.6377 51.4533 36.3577 51.3087 36.0124 51.206C35.6764 51.094 35.2984 50.9913 34.8784 50.898C34.4677 50.8047 34.0524 50.6973 33.6324 50.576C33.2217 50.4453 32.8437 50.282 32.4984 50.086C32.1624 49.8807 31.8871 49.61 31.6724 49.274C31.4577 48.938 31.3504 48.5087 31.3504 47.986C31.3504 47.454 31.4904 46.9687 31.7704 46.53C32.0597 46.082 32.4937 45.7273 33.0724 45.466C33.6604 45.1953 34.4024 45.06 35.2984 45.06C35.8864 45.06 36.4697 45.1347 37.0484 45.284C37.6271 45.4333 38.1311 45.648 38.5604 45.928L37.9864 47.342C37.5477 47.0807 37.0951 46.8893 36.6284 46.768C36.1617 46.6373 35.7137 46.572 35.2844 46.572C34.7804 46.572 34.3697 46.6327 34.0524 46.754C33.7444 46.8753 33.5157 47.034 33.3664 47.23C33.2264 47.426 33.1564 47.65 33.1564 47.902C33.1564 48.2007 33.2591 48.4433 33.4644 48.63C33.6791 48.8073 33.9544 48.9473 34.2904 49.05C34.6357 49.1527 35.0184 49.2553 35.4384 49.358C35.8584 49.4513 36.2737 49.5587 36.6844 49.68C37.1044 49.8013 37.4824 49.96 37.8184 50.156C38.1637 50.352 38.4391 50.618 38.6444 50.954C38.8591 51.29 38.9664 51.7147 38.9664 52.228C38.9664 52.7507 38.8217 53.236 38.5324 53.684C38.2524 54.1227 37.8184 54.4773 37.2304 54.748C36.6424 55.0093 35.9004 55.14 35.0044 55.14ZM45.3631 55.14C44.5977 55.14 43.8931 55.014 43.2491 54.762C42.6051 54.51 42.0451 54.16 41.5691 53.712C41.0931 53.2547 40.7244 52.7227 40.4631 52.116C40.2017 51.5 40.0711 50.828 40.0711 50.1C40.0711 49.372 40.2017 48.7047 40.4631 48.098C40.7244 47.482 41.0931 46.95 41.5691 46.502C42.0451 46.0447 42.6051 45.69 43.2491 45.438C43.8931 45.186 44.5931 45.06 45.3491 45.06C46.1144 45.06 46.8144 45.186 47.4491 45.438C48.0931 45.69 48.6531 46.0447 49.1291 46.502C49.6051 46.95 49.9737 47.482 50.2351 48.098C50.4964 48.7047 50.6271 49.372 50.6271 50.1C50.6271 50.828 50.4964 51.5 50.2351 52.116C49.9737 52.732 49.6051 53.264 49.1291 53.712C48.6531 54.16 48.0931 54.51 47.4491 54.762C46.8144 55.014 46.1191 55.14 45.3631 55.14ZM45.3491 53.544C45.8437 53.544 46.3011 53.46 46.7211 53.292C47.1411 53.124 47.5051 52.886 47.8131 52.578C48.1211 52.2607 48.3591 51.8967 48.5271 51.486C48.7044 51.066 48.7931 50.604 48.7931 50.1C48.7931 49.596 48.7044 49.1387 48.5271 48.728C48.3591 48.308 48.1211 47.944 47.8131 47.636C47.5051 47.3187 47.1411 47.076 46.7211 46.908C46.3011 46.74 45.8437 46.656 45.3491 46.656C44.8544 46.656 44.3971 46.74 43.9771 46.908C43.5664 47.076 43.2024 47.3187 42.8851 47.636C42.5771 47.944 42.3344 48.308 42.1571 48.728C41.9891 49.1387 41.9051 49.596 41.9051 50.1C41.9051 50.5947 41.9891 51.052 42.1571 51.472C42.3344 51.892 42.5771 52.2607 42.8851 52.578C43.1931 52.886 43.5571 53.124 43.9771 53.292C44.3971 53.46 44.8544 53.544 45.3491 53.544ZM52.5562 55V45.2H54.0542L60.2002 52.746H59.4582V45.2H61.2642V55H59.7662L53.6202 47.454H54.3622V55H52.5562ZM68.4822 55.14C67.7169 55.14 67.0122 55.014 66.3682 54.762C65.7242 54.51 65.1642 54.16 64.6882 53.712C64.2122 53.2547 63.8436 52.7227 63.5822 52.116C63.3209 51.5 63.1902 50.828 63.1902 50.1C63.1902 49.372 63.3209 48.7047 63.5822 48.098C63.8436 47.482 64.2122 46.95 64.6882 46.502C65.1642 46.0447 65.7242 45.69 66.3682 45.438C67.0122 45.186 67.7122 45.06 68.4682 45.06C69.2336 45.06 69.9336 45.186 70.5682 45.438C71.2122 45.69 71.7722 46.0447 72.2482 46.502C72.7242 46.95 73.0929 47.482 73.3542 48.098C73.6156 48.7047 73.7462 49.372 73.7462 50.1C73.7462 50.828 73.6156 51.5 73.3542 52.116C73.0929 52.732 72.7242 53.264 72.2482 53.712C71.7722 54.16 71.2122 54.51 70.5682 54.762C69.9336 55.014 69.2382 55.14 68.4822 55.14ZM68.4682 53.544C68.9629 53.544 69.4202 53.46 69.8402 53.292C70.2602 53.124 70.6242 52.886 70.9322 52.578C71.2402 52.2607 71.4782 51.8967 71.6462 51.486C71.8236 51.066 71.9122 50.604 71.9122 50.1C71.9122 49.596 71.8236 49.1387 71.6462 48.728C71.4782 48.308 71.2402 47.944 70.9322 47.636C70.6242 47.3187 70.2602 47.076 69.8402 46.908C69.4202 46.74 68.9629 46.656 68.4682 46.656C67.9736 46.656 67.5162 46.74 67.0962 46.908C66.6856 47.076 66.3216 47.3187 66.0042 47.636C65.6962 47.944 65.4536 48.308 65.2762 48.728C65.1082 49.1387 65.0242 49.596 65.0242 50.1C65.0242 50.5947 65.1082 51.052 65.2762 51.472C65.4536 51.892 65.6962 52.2607 66.0042 52.578C66.3122 52.886 66.6762 53.124 67.0962 53.292C67.5162 53.46 67.9736 53.544 68.4682 53.544ZM79.5445 55V45.2H83.5765C84.4445 45.2 85.1865 45.34 85.8025 45.62C86.4278 45.9 86.9085 46.3013 87.2445 46.824C87.5805 47.3467 87.7485 47.9673 87.7485 48.686C87.7485 49.4047 87.5805 50.0253 87.2445 50.548C86.9085 51.0613 86.4278 51.458 85.8025 51.738C85.1865 52.0087 84.4445 52.144 83.5765 52.144H80.5525L81.3645 51.318V55H79.5445ZM85.9565 55L83.4785 51.444H85.4245L87.9165 55H85.9565ZM81.3645 51.514L80.5525 50.646H83.4925C84.2952 50.646 84.8972 50.4733 85.2985 50.128C85.7092 49.7827 85.9145 49.302 85.9145 48.686C85.9145 48.0607 85.7092 47.58 85.2985 47.244C84.8972 46.908 84.2952 46.74 83.4925 46.74H80.5525L81.3645 45.844V51.514ZM94.3768 55.14C93.6114 55.14 92.9068 55.014 92.2628 54.762C91.6188 54.51 91.0588 54.16 90.5828 53.712C90.1068 53.2547 89.7381 52.7227 89.4768 52.116C89.2154 51.5 89.0848 50.828 89.0848 50.1C89.0848 49.372 89.2154 48.7047 89.4768 48.098C89.7381 47.482 90.1068 46.95 90.5828 46.502C91.0588 46.0447 91.6188 45.69 92.2628 45.438C92.9068 45.186 93.6068 45.06 94.3628 45.06C95.1281 45.06 95.8281 45.186 96.4628 45.438C97.1068 45.69 97.6668 46.0447 98.1428 46.502C98.6188 46.95 98.9874 47.482 99.2488 48.098C99.5101 48.7047 99.6408 49.372 99.6408 50.1C99.6408 50.828 99.5101 51.5 99.2488 52.116C98.9874 52.732 98.6188 53.264 98.1428 53.712C97.6668 54.16 97.1068 54.51 96.4628 54.762C95.8281 55.014 95.1328 55.14 94.3768 55.14ZM94.3628 53.544C94.8574 53.544 95.3148 53.46 95.7348 53.292C96.1548 53.124 96.5188 52.886 96.8268 52.578C97.1348 52.2607 97.3728 51.8967 97.5408 51.486C97.7181 51.066 97.8068 50.604 97.8068 50.1C97.8068 49.596 97.7181 49.1387 97.5408 48.728C97.3728 48.308 97.1348 47.944 96.8268 47.636C96.5188 47.3187 96.1548 47.076 95.7348 46.908C95.3148 46.74 94.8574 46.656 94.3628 46.656C93.8681 46.656 93.4108 46.74 92.9908 46.908C92.5801 47.076 92.2161 47.3187 91.8988 47.636C91.5908 47.944 91.3481 48.308 91.1708 48.728C91.0028 49.1387 90.9188 49.596 90.9188 50.1C90.9188 50.5947 91.0028 51.052 91.1708 51.472C91.3481 51.892 91.5908 52.2607 91.8988 52.578C92.2068 52.886 92.5708 53.124 92.9908 53.292C93.4108 53.46 93.8681 53.544 94.3628 53.544ZM106.106 55.14C105.359 55.14 104.664 55.0187 104.02 54.776C103.385 54.524 102.83 54.174 102.354 53.726C101.887 53.2687 101.523 52.732 101.262 52.116C101.001 51.5 100.87 50.828 100.87 50.1C100.87 49.372 101.001 48.7 101.262 48.084C101.523 47.468 101.892 46.936 102.368 46.488C102.844 46.0307 103.399 45.6807 104.034 45.438C104.669 45.186 105.364 45.06 106.12 45.06C106.923 45.06 107.655 45.2 108.318 45.48C108.981 45.7507 109.541 46.1567 109.998 46.698L108.822 47.804C108.467 47.4213 108.071 47.1367 107.632 46.95C107.193 46.754 106.717 46.656 106.204 46.656C105.691 46.656 105.219 46.74 104.79 46.908C104.37 47.076 104.001 47.314 103.684 47.622C103.376 47.93 103.133 48.294 102.956 48.714C102.788 49.134 102.704 49.596 102.704 50.1C102.704 50.604 102.788 51.066 102.956 51.486C103.133 51.906 103.376 52.27 103.684 52.578C104.001 52.886 104.37 53.124 104.79 53.292C105.219 53.46 105.691 53.544 106.204 53.544C106.717 53.544 107.193 53.4507 107.632 53.264C108.071 53.068 108.467 52.774 108.822 52.382L109.998 53.502C109.541 54.034 108.981 54.44 108.318 54.72C107.655 55 106.918 55.14 106.106 55.14ZM116.073 55.14C115.326 55.14 114.631 55.0187 113.987 54.776C113.352 54.524 112.797 54.174 112.321 53.726C111.854 53.2687 111.49 52.732 111.229 52.116C110.967 51.5 110.837 50.828 110.837 50.1C110.837 49.372 110.967 48.7 111.229 48.084C111.49 47.468 111.859 46.936 112.335 46.488C112.811 46.0307 113.366 45.6807 114.001 45.438C114.635 45.186 115.331 45.06 116.087 45.06C116.889 45.06 117.622 45.2 118.285 45.48C118.947 45.7507 119.507 46.1567 119.965 46.698L118.789 47.804C118.434 47.4213 118.037 47.1367 117.599 46.95C117.16 46.754 116.684 46.656 116.171 46.656C115.657 46.656 115.186 46.74 114.757 46.908C114.337 47.076 113.968 47.314 113.651 47.622C113.343 47.93 113.1 48.294 112.923 48.714C112.755 49.134 112.671 49.596 112.671 50.1C112.671 50.604 112.755 51.066 112.923 51.486C113.1 51.906 113.343 52.27 113.651 52.578C113.968 52.886 114.337 53.124 114.757 53.292C115.186 53.46 115.657 53.544 116.171 53.544C116.684 53.544 117.16 53.4507 117.599 53.264C118.037 53.068 118.434 52.774 118.789 52.382L119.965 53.502C119.507 54.034 118.947 54.44 118.285 54.72C117.622 55 116.885 55.14 116.073 55.14ZM121.709 55V45.2H123.529V55H121.709ZM124.793 55L129.203 45.2H130.995L135.419 55H133.515L129.721 46.166H130.449L126.669 55H124.793ZM126.823 52.732L127.313 51.304H132.605L133.095 52.732H126.823Z" fill="#F9F8F7"/>
</svg>
